<svg width="24" height="24" viewBox="0 0 24 24" fill="none" xmlns="http://www.w3.org/2000/svg">
<g id="cib:apple" clip-path="url(#clip0_297_849)">
<path id="Vector" d="M7.07853 23.5508C6.60534 23.2359 6.18597 22.847 5.83653 22.3988C5.45214 21.9361 5.09599 21.4507 4.77003 20.9453C4.00509 19.8246 3.4052 18.5998 2.98878 17.3085C2.48853 15.8085 2.24628 14.3708 2.24628 12.9645C2.24628 11.394 2.58603 10.023 3.25053 8.871C3.74311 7.97058 4.46734 7.21813 5.34828 6.6915C6.20201 6.16123 7.18296 5.87104 8.18778 5.8515C8.53953 5.8515 8.91828 5.9025 9.32028 6C9.60903 6.08175 9.96078 6.21075 10.3905 6.37125C10.9373 6.582 11.238 6.711 11.34 6.7425C11.6603 6.8595 11.9295 6.9105 12.141 6.9105C12.3015 6.9105 12.528 6.8595 12.7853 6.7815C12.93 6.7305 13.203 6.6405 13.5938 6.47325C13.9808 6.33225 14.2853 6.2115 14.5275 6.1215C14.8988 6.012 15.258 5.91075 15.5783 5.85975C15.9579 5.7999 16.3432 5.78404 16.7265 5.8125C17.3907 5.85592 18.045 5.99667 18.6683 6.23025C19.6875 6.6405 20.5118 7.281 21.1253 8.1915C20.866 8.35132 20.6226 8.53567 20.3985 8.742C19.9107 9.17444 19.4952 9.6821 19.1678 10.2458C18.7398 11.016 18.5178 11.8838 18.5235 12.765C18.5393 13.8473 18.8168 14.8005 19.3635 15.6248C19.7655 16.2356 20.2879 16.758 20.8988 17.16C21.2115 17.3708 21.4808 17.5155 21.7388 17.613C21.618 17.988 21.489 18.351 21.3368 18.711C20.9915 19.5183 20.573 20.2923 20.0865 21.0233C19.653 21.6525 19.3133 22.1213 19.0553 22.4333C18.6533 22.9095 18.2663 23.2733 17.8755 23.5268C17.4458 23.8118 16.938 23.964 16.422 23.964C16.0726 23.9774 15.7232 23.9351 15.387 23.8388C15.0983 23.7413 14.8125 23.6355 14.5313 23.5148C14.2389 23.3804 13.9374 23.2669 13.629 23.175C12.8668 22.9792 12.0676 22.9779 11.3048 23.1713C10.992 23.2613 10.6913 23.3663 10.3943 23.4953C9.97653 23.6708 9.69903 23.7885 9.53853 23.8388C9.21828 23.9325 8.88603 23.991 8.55003 24.0105C8.03028 24.0105 7.54578 23.862 7.06578 23.5613L7.07853 23.5508ZM13.9335 5.0895C13.254 5.42925 12.6053 5.574 11.961 5.52675C11.8598 4.878 11.961 4.21425 12.2303 3.4875C12.4595 2.8718 12.7982 2.30264 13.23 1.8075C13.686 1.28627 14.2394 0.859034 14.859 0.549752C15.519 0.210002 16.1483 0.0262523 16.7498 -0.000747681C16.8278 0.678752 16.7498 1.347 16.5 2.06925C16.2689 2.70772 15.9308 3.3022 15.5003 3.82725C15.0608 4.3492 14.5215 4.77809 13.914 5.08875L13.9335 5.0895Z" fill="white"/>
</g>
<defs>
<clipPath id="clip0_297_849">
<rect width="24" height="24" fill="white"/>
</clipPath>
</defs>
</svg>
