<svg width="24" height="24" viewBox="0 0 24 24" fill="none" xmlns="http://www.w3.org/2000/svg">
<g id="google_ic">
<g id="Group 123">
<path id="Vector" d="M5.92625 14.2759L5.16679 17.1111L2.39098 17.1698C1.56142 15.6312 1.09088 13.8708 1.09088 12C1.09088 10.191 1.53082 8.48514 2.31065 6.98305H2.31125L4.7825 7.43612L5.86506 9.89254C5.63848 10.5531 5.51499 11.2622 5.51499 12C5.51507 12.8008 5.66013 13.5681 5.92625 14.2759Z" fill="#FBBB00"/>
<path id="Vector_2" d="M22.7185 9.96201C22.8437 10.6219 22.9091 11.3034 22.9091 12C22.9091 12.781 22.827 13.5428 22.6705 14.2777C22.1395 16.7784 20.7518 18.962 18.8296 20.5073L18.829 20.5067L15.7163 20.3478L15.2758 17.5978C16.5513 16.8497 17.5481 15.6791 18.0732 14.2777H12.2398V9.96201H18.1583H22.7185Z" fill="#518EF8"/>
<path id="Vector_3" d="M18.8289 20.5067L18.8295 20.5073C16.96 22.01 14.5852 22.9091 12 22.9091C7.84554 22.9091 4.23356 20.587 2.39099 17.1699L5.92626 14.276C6.84752 16.7347 9.21936 18.485 12 18.485C13.1952 18.485 14.3149 18.1619 15.2757 17.5978L18.8289 20.5067Z" fill="#28B446"/>
<path id="Vector_4" d="M18.9632 3.60239L15.4291 6.49569C14.4348 5.87412 13.2593 5.51506 12 5.51506C9.15642 5.51506 6.74023 7.34561 5.86512 9.8925L2.31127 6.98302H2.31067C4.12627 3.48252 7.78379 1.09091 12 1.09091C14.6469 1.09091 17.0739 2.03378 18.9632 3.60239Z" fill="#F14336"/>
</g>
</g>
</svg>
