<svg width="26" height="30" fill="none" xmlns="http://www.w3.org/2000/svg"><g filter="url(#prefix__filter0_d_1_41639)"><path d="M20.96 8.96c-.67-.74-1.68-1.17-3.08-1.32v-.76c0-1.37-.58-2.69-1.6-3.61a4.847 4.847 0 00-3.76-1.25c-2.39.23-4.4 2.54-4.4 5.04v.58c-1.4.15-2.41.58-3.08 1.32-.97 1.08-.94 2.52-.83 3.52l.7 5.57c.21 1.95 1 3.95 5.3 3.95h5.58c4.3 0 5.09-2 5.3-3.94l.7-5.59c.11-.99.13-2.43-.83-3.51zm-8.3-5.55a3.482 3.482 0 013.83 3.47v.7H9.51v-.52c0-1.78 1.47-3.49 3.15-3.65zm-3.24 9.74h-.01c-.55 0-1-.45-1-1s.45-1 1-1c.56 0 1.01.45 1.01 1s-.45 1-1 1zm7 0h-.01c-.55 0-1-.45-1-1s.45-1 1-1c.56 0 1.01.45 1.01 1s-.45 1-1 1z" fill="#3352FF"/></g><defs><filter id="prefix__filter0_d_1_41639" x="-3" y="0" width="32" height="32" filterUnits="userSpaceOnUse" color-interpolation-filters="sRGB"><feFlood flood-opacity="0" result="BackgroundImageFix"/><feColorMatrix in="SourceAlpha" values="0 0 0 0 0 0 0 0 0 0 0 0 0 0 0 0 0 0 127 0" result="hardAlpha"/><feOffset dy="4"/><feGaussianBlur stdDeviation="2"/><feComposite in2="hardAlpha" operator="out"/><feColorMatrix values="0 0 0 0 0 0 0 0 0 0 0 0 0 0 0 0 0 0 0.25 0"/><feBlend in2="BackgroundImageFix" result="effect1_dropShadow_1_41639"/><feBlend in="SourceGraphic" in2="effect1_dropShadow_1_41639" result="shape"/></filter></defs></svg>