<svg width="24" height="24" viewBox="0 0 24 24" fill="none" xmlns="http://www.w3.org/2000/svg">
<path d="M19.08 15.72C18.49 12.19 15.1 9.32001 11.52 9.32001C7.63003 9.32001 4.21003 12.47 3.88003 16.35C3.75003 17.85 4.23003 19.27 5.22003 20.34C6.20003 21.41 7.58003 22 9.08003 22H13.76C15.45 22 16.93 21.34 17.94 20.15C18.95 18.96 19.35 17.38 19.08 15.72Z" fill="#3352FF"/>
<path d="M10.2801 7.86C11.8983 7.86 13.2101 6.54819 13.2101 4.93C13.2101 3.31181 11.8983 2 10.2801 2C8.6619 2 7.3501 3.31181 7.3501 4.93C7.3501 6.54819 8.6619 7.86 10.2801 7.86Z" fill="#3352FF"/>
<path d="M16.94 9.02999C18.2876 9.02999 19.38 7.93757 19.38 6.58999C19.38 5.24242 18.2876 4.14999 16.94 4.14999C15.5924 4.14999 14.5 5.24242 14.5 6.58999C14.5 7.93757 15.5924 9.02999 16.94 9.02999Z" fill="#3352FF"/>
<path d="M20.5501 12.93C21.6271 12.93 22.5001 12.057 22.5001 10.98C22.5001 9.90304 21.6271 9.03 20.5501 9.03C19.4731 9.03 18.6001 9.90304 18.6001 10.98C18.6001 12.057 19.4731 12.93 20.5501 12.93Z" fill="#3352FF"/>
<path d="M3.94 10.98C5.28757 10.98 6.38 9.88758 6.38 8.54001C6.38 7.19243 5.28757 6.10001 3.94 6.10001C2.59243 6.10001 1.5 7.19243 1.5 8.54001C1.5 9.88758 2.59243 10.98 3.94 10.98Z" fill="#3352FF"/>
</svg>
