<svg width="24" height="24" viewBox="0 0 24 24" fill="none" xmlns="http://www.w3.org/2000/svg">
<path fill-rule="evenodd" clip-rule="evenodd" d="M11 2C6.02944 2 2 6.02944 2 11C2 15.9706 6.02944 20 11 20C13.1246 20 15.0784 19.2629 16.6177 18.0319L20.2929 21.7071C20.6834 22.0976 21.3166 22.0976 21.7071 21.7071C22.0976 21.3166 22.0976 20.6834 21.7071 20.2929L18.0319 16.6176C19.2629 15.0784 20 13.1246 20 11C20 6.02944 15.9706 2 11 2ZM4 11C4 7.13401 7.13401 4 11 4C14.866 4 18 7.134 18 11C18 12.9299 17.2203 14.6758 15.9564 15.9431L15.9563 15.9431C14.688 17.2149 12.9367 18 11 18C7.134 18 4 14.866 4 11Z" fill="#3352FF"/>
</svg>
