<svg width="24" height="24" viewBox="0 0 24 24" fill="none" xmlns="http://www.w3.org/2000/svg">
<path fill-rule="evenodd" clip-rule="evenodd" d="M12 1C5.92487 1 1 5.92487 1 12C1 14.6428 1.93204 17.068 3.48535 18.9647C3.49346 18.975 3.50179 18.9852 3.51034 18.9952C5.52789 21.4409 8.58188 23 12 23C15.4166 23 18.4694 21.4423 20.487 18.9984C20.4974 18.9863 20.5076 18.9739 20.5174 18.9614C22.069 17.0652 23 14.6413 23 12C23 5.92486 18.0751 1 12 1ZM19.5889 16.8403C20.4822 15.4426 21 13.7818 21 12C21 7.02944 16.9705 3 12 3C7.02943 3 3 7.02943 3 12C3 13.7818 3.51779 15.4427 4.41112 16.8403C4.71805 16.5963 5.10478 16.3244 5.57679 16.0546C6.96594 15.2607 9.06837 14.5 12 14.5C14.9316 14.5 17.0341 15.2607 18.4233 16.0546C18.8952 16.3244 19.282 16.5963 19.5889 16.8403ZM5.66823 18.396C7.2943 20.0058 9.53105 21 12 21C14.4689 21 16.7057 20.0058 18.3318 18.3959C18.1007 18.2132 17.8019 18.0031 17.4308 17.7911C16.3305 17.1622 14.5684 16.5 12 16.5C9.43164 16.5 7.66957 17.1622 6.56921 17.7911C6.19813 18.0031 5.89934 18.2132 5.66823 18.396Z" fill="#3352FF"/>
<path d="M12 12C13.6569 12 15 10.6569 15 9C15 7.34315 13.6569 6 12 6C10.3431 6 9 7.34315 9 9C9 10.6569 10.3431 12 12 12Z" stroke="#3352FF" stroke-width="2" stroke-linecap="round" stroke-linejoin="round"/>
</svg>
