<svg width="12" height="20" viewBox="0 0 12 20" fill="#ffffff" xmlns="http://www.w3.org/2000/svg">
<path d="M10.7888 0.482398C10.6789 0.36187 10.5484 0.266244 10.4048 0.200997C10.2611 0.13575 10.107 0.102165 9.95147 0.102165C9.79591 0.102165 9.64188 0.13575 9.49819 0.200997C9.35451 0.266244 9.224 0.36187 9.11414 0.482398L1.25173 9.08654C1.16402 9.18233 1.09443 9.29611 1.04695 9.42136C0.999476 9.54662 0.975037 9.68089 0.975037 9.8165C0.975037 9.9521 0.999476 10.0864 1.04695 10.2116C1.09443 10.3369 1.16402 10.4507 1.25173 10.5465L9.11414 19.1506C9.57775 19.6579 10.3252 19.6579 10.7888 19.1506C11.2524 18.6433 11.2524 17.8253 10.7888 17.3179L3.93876 9.81132L10.7983 2.3047C11.2524 1.80771 11.2524 0.979389 10.7888 0.482398Z" fill="#ffffff" stroke="white" stroke-width="0.2"/>
</svg>
