<svg width="340" height="279" viewBox="0 0 340 279" fill="none" xmlns="http://www.w3.org/2000/svg">
<g clip-path="url(#clip0_143_521)">
<path d="M325.316 226.951C325.137 226.406 323.782 226.646 323.652 226.158C323.522 225.671 324.822 225.264 325.82 223.893C326 223.646 327.133 222.088 326.698 221.433C325.874 220.191 320.142 223.284 318.765 221.549C318.463 221.168 318.339 220.514 317.44 219.297C317.082 218.813 316.852 218.579 316.578 218.586C316.188 218.596 316.049 219.082 315.437 219.962C314.52 221.281 314.189 221.115 313.584 222.197C313.135 222.999 313.082 223.512 312.759 223.542C312.301 223.585 312.112 222.586 311.552 222.547C310.981 222.507 310.41 223.495 310.127 224.266C309.595 225.714 309.924 226.82 309.997 227.923C310.076 229.121 309.89 230.875 308.585 233.127L296.271 252.694C298.916 248.705 306.422 237.828 309.447 233.838C310.32 232.686 311.258 231.529 312.702 231.312C314.092 231.102 315.784 231.788 318.145 231.749C318.421 231.744 319.188 231.721 319.375 231.315C319.529 230.98 319.146 230.688 319.286 230.373C319.473 229.95 320.314 230.132 321.46 229.851C322.269 229.653 322.818 229.326 323.29 229.044C323.433 228.959 325.554 227.678 325.316 226.951Z" fill="#3352FF"/>
<path d="M293.065 231.52C292.745 231.45 292.472 232.183 292.194 232.105C291.917 232.029 292.092 231.274 291.705 230.391C291.636 230.231 291.196 229.227 290.748 229.251C289.899 229.296 289.767 232.994 288.516 233.167C288.242 233.205 287.884 233.077 287.026 233.167C286.684 233.202 286.503 233.247 286.427 233.384C286.32 233.577 286.518 233.785 286.775 234.339C287.159 235.168 286.982 235.283 287.34 235.891C287.606 236.342 287.843 236.516 287.764 236.683C287.653 236.919 287.107 236.724 286.926 236.986C286.742 237.255 287.063 237.819 287.361 238.18C287.92 238.858 288.559 239.016 289.123 239.299C289.736 239.606 290.545 240.203 291.276 241.492L297.352 253.165C296.152 250.719 292.966 243.906 291.875 241.275C291.56 240.515 291.262 239.722 291.571 238.952C291.869 238.211 292.695 237.581 293.357 236.414C293.434 236.278 293.644 235.895 293.498 235.687C293.378 235.515 293.124 235.618 293.009 235.459C292.855 235.245 293.187 234.886 293.379 234.244C293.515 233.791 293.512 233.427 293.51 233.115C293.51 233.021 293.491 231.613 293.065 231.52Z" fill="#3352FF"/>
<path d="M299.126 234.368L299.317 232.609L299.435 232.499C299.977 231.988 300.316 231.447 300.443 230.89C300.463 230.801 300.479 230.712 300.495 230.62C300.558 230.259 300.637 229.809 300.985 229.342C301.18 229.082 301.696 228.494 302.229 228.7C302.372 228.753 302.469 228.846 302.537 228.945C302.554 228.928 302.571 228.911 302.589 228.892C302.819 228.669 302.98 228.588 303.135 228.509C303.254 228.449 303.377 228.386 303.585 228.22C303.676 228.148 303.749 228.082 303.811 228.027C303.998 227.861 304.236 227.666 304.564 227.743C304.91 227.838 305.029 228.168 305.108 228.386C305.249 228.776 305.293 229.044 305.321 229.222C305.332 229.286 305.344 229.36 305.353 229.383C305.429 229.574 306.382 229.624 306.74 229.644C307.546 229.688 308.244 229.726 308.411 230.276C308.532 230.67 308.281 231.099 307.644 231.586C307.446 231.738 307.248 231.843 307.075 231.921C307.181 232.021 307.266 232.157 307.271 232.343C307.283 232.782 306.831 233.119 305.929 233.346C305.705 233.403 305.403 233.479 305.008 233.46C304.823 233.45 304.66 233.422 304.521 233.395C304.5 233.474 304.462 233.556 304.394 233.634C304.193 233.863 303.869 233.922 303.428 233.793C302.942 233.657 302.558 233.474 302.22 233.312C301.924 233.172 301.668 233.051 301.454 233.019C301.056 232.963 300.685 233.208 300.24 233.535L299.126 234.368Z" fill="#3352FF"/>
<path d="M302.305 224.351L300.551 224.613L300.414 224.528C299.781 224.135 299.17 223.945 298.598 223.963C298.507 223.966 298.416 223.974 298.323 223.982C297.957 224.012 297.501 224.05 296.959 223.832C296.658 223.71 295.957 223.361 296.021 222.796C296.036 222.644 296.102 222.527 296.18 222.437C296.16 222.425 296.139 222.412 296.116 222.399C295.842 222.234 295.722 222.099 295.606 221.97C295.517 221.87 295.426 221.768 295.212 221.609C295.118 221.539 295.036 221.486 294.967 221.44C294.759 221.302 294.509 221.121 294.501 220.786C294.505 220.427 294.795 220.229 294.986 220.097C295.329 219.863 295.577 219.753 295.743 219.68C295.803 219.653 295.871 219.623 295.891 219.609C296.057 219.487 295.863 218.555 295.793 218.204C295.63 217.415 295.49 216.733 295.981 216.431C296.333 216.215 296.813 216.348 297.447 216.839C297.644 216.992 297.796 217.157 297.915 217.303C297.986 217.175 298.096 217.059 298.275 217.007C298.698 216.885 299.139 217.235 299.588 218.048C299.701 218.249 299.85 218.521 299.932 218.907C299.97 219.088 299.984 219.253 299.994 219.393C300.075 219.393 300.164 219.409 300.257 219.455C300.531 219.591 300.669 219.889 300.656 220.347C300.648 220.85 300.567 221.267 300.497 221.635C300.435 221.956 300.383 222.233 300.406 222.448C300.453 222.846 300.785 223.142 301.214 223.488L302.305 224.351Z" fill="#3352FF"/>
<path d="M302.541 219.097L302.732 217.339L302.849 217.228C303.391 216.717 303.73 216.176 303.858 215.619C303.878 215.531 303.893 215.441 303.909 215.35C303.973 214.988 304.052 214.539 304.4 214.072C304.595 213.812 305.111 213.224 305.643 213.429C305.787 213.483 305.884 213.576 305.951 213.674C305.968 213.657 305.986 213.64 306.004 213.622C306.234 213.399 306.395 213.317 306.55 213.239C306.669 213.178 306.792 213.116 307 212.95C307.091 212.877 307.164 212.812 307.226 212.757C307.412 212.59 307.651 212.396 307.978 212.473C308.325 212.567 308.444 212.897 308.523 213.116C308.664 213.505 308.707 213.773 308.736 213.951C308.746 214.016 308.758 214.089 308.767 214.113C308.843 214.304 309.796 214.353 310.155 214.374C310.961 214.417 311.658 214.455 311.826 215.005C311.946 215.399 311.696 215.829 311.059 216.316C310.861 216.468 310.663 216.572 310.49 216.65C310.596 216.75 310.681 216.887 310.686 217.072C310.698 217.511 310.246 217.848 309.344 218.076C309.119 218.133 308.818 218.208 308.423 218.189C308.237 218.18 308.074 218.152 307.936 218.125C307.915 218.204 307.877 218.286 307.809 218.364C307.608 218.593 307.283 218.651 306.843 218.522C306.357 218.387 305.973 218.203 305.634 218.042C305.338 217.901 305.083 217.781 304.869 217.748C304.471 217.693 304.099 217.938 303.655 218.264L302.541 219.097Z" fill="#3352FF"/>
<path d="M296.854 252.794L296.544 252.488L296.113 252.443C296.115 252.402 296.112 252.308 296.109 252.16C296.092 251.351 296.041 248.889 296.384 245.106C296.624 242.465 297.025 239.784 297.576 237.137C298.128 234.485 298.701 232.512 299.161 230.927C299.509 229.731 299.859 228.596 300.201 227.491C301.114 224.539 301.976 221.75 302.51 218.57C302.63 217.86 302.878 216.381 302.37 214.637C302.075 213.625 301.571 212.673 300.869 211.807L301.548 211.261C302.322 212.217 302.88 213.272 303.207 214.395C303.77 216.33 303.5 217.94 303.37 218.714C302.827 221.951 301.956 224.766 301.034 227.747C300.694 228.848 300.344 229.977 299.998 231.168C299.543 232.739 298.975 234.695 298.43 237.313C297.885 239.928 297.489 242.576 297.252 245.184C296.913 248.919 296.964 251.345 296.98 252.142C296.989 252.567 296.991 252.656 296.854 252.794Z" fill="#3352FF"/>
<path d="M299.008 212.808C298.973 212.8 298.938 212.792 298.903 212.781C298.187 212.581 297.613 211.999 297.196 211.053C297.001 210.607 296.955 210.139 296.863 209.204C296.849 209.06 296.785 208.331 296.863 207.365C296.914 206.734 296.982 206.48 297.155 206.281C297.346 206.059 297.604 205.932 297.876 205.868C297.883 205.785 297.911 205.703 297.965 205.626C298.189 205.304 298.564 205.436 298.768 205.505C298.87 205.542 298.998 205.588 299.142 205.612C299.368 205.651 299.503 205.612 299.707 205.553C299.902 205.496 300.145 205.426 300.481 205.432C301.143 205.441 301.633 205.738 301.795 205.836C302.647 206.346 302.941 207.16 303.281 208.103C303.348 208.292 303.573 208.975 303.625 209.855C303.663 210.489 303.579 210.749 303.484 210.935C303.289 211.316 302.99 211.493 302.248 211.866C301.472 212.256 301.083 212.451 300.764 212.552C300.022 212.784 299.556 212.93 299.008 212.808Z" fill="#3352FF"/>
<path d="M44.6368 226.951C44.458 226.406 43.1029 226.646 42.9727 226.158C42.8431 225.671 44.1435 225.264 45.1408 223.893C45.3207 223.646 46.4541 222.088 46.0194 221.433C45.1954 220.191 39.4627 223.284 38.0867 221.549C37.7847 221.168 37.6604 220.514 36.7608 219.297C36.4029 218.813 36.1732 218.579 35.8989 218.586C35.5096 218.596 35.3703 219.082 34.7585 219.962C33.8409 221.281 33.5098 221.115 32.9053 222.197C32.4566 222.999 32.4035 223.512 32.0799 223.542C31.622 223.585 31.4328 222.586 30.8733 222.547C30.3023 222.507 29.731 223.495 29.4478 224.266C28.9163 225.714 29.2454 226.82 29.3183 227.923C29.3976 229.121 29.2115 230.875 27.906 233.127L15.5927 252.694C18.2371 248.705 25.7435 237.828 28.7679 233.838C29.6409 232.686 30.5792 231.529 32.0232 231.312C33.4136 231.102 35.1052 231.788 37.4664 231.749C37.7422 231.744 38.5096 231.721 38.6963 231.315C38.8506 230.98 38.4674 230.688 38.6068 230.373C38.7938 229.95 39.635 230.132 40.7815 229.851C41.5898 229.653 42.1391 229.326 42.6113 229.044C42.7537 228.959 44.8749 227.678 44.6368 226.951Z" fill="#3352FF"/>
<path d="M12.386 231.52C12.0658 231.45 11.7931 232.183 11.5153 232.105C11.2386 232.029 11.4131 231.274 11.0264 230.391C10.9567 230.231 10.5172 229.227 10.0694 229.251C9.22064 229.296 9.08847 232.994 7.83739 233.167C7.56283 233.205 7.2052 233.077 6.34681 233.167C6.00532 233.202 5.82407 233.247 5.74831 233.384C5.64082 233.577 5.83964 233.785 6.09608 234.339C6.48066 235.168 6.30359 235.283 6.66121 235.891C6.92669 236.342 7.1637 236.516 7.08521 236.683C6.97415 236.919 6.42783 236.724 6.24731 236.986C6.06312 237.255 6.38414 237.819 6.68203 238.18C7.24104 238.858 7.88048 239.016 8.44416 239.299C9.05674 239.606 9.86625 240.203 10.5975 241.492L16.6735 253.165C15.4736 250.719 12.2868 243.906 11.196 241.275C10.8812 240.515 10.5827 239.722 10.8923 238.952C11.1904 238.211 12.0161 237.581 12.6777 236.414C12.755 236.278 12.9653 235.895 12.8195 235.687C12.699 235.515 12.4449 235.618 12.33 235.459C12.1758 235.245 12.5078 234.886 12.7004 234.244C12.8362 233.791 12.8336 233.427 12.8314 233.115C12.8307 233.021 12.8121 231.613 12.386 231.52Z" fill="#3352FF"/>
<path d="M18.4476 234.368L18.6386 232.609L18.7558 232.499C19.2977 231.988 19.6367 231.447 19.7639 230.89C19.7841 230.801 19.7998 230.712 19.8158 230.62C19.8793 230.259 19.958 229.809 20.3065 229.342C20.5016 229.082 21.0176 228.494 21.5498 228.7C21.6935 228.753 21.7904 228.846 21.8578 228.945C21.8747 228.928 21.892 228.911 21.9105 228.892C22.1404 228.669 22.3012 228.588 22.4562 228.509C22.5752 228.449 22.6981 228.386 22.9061 228.22C22.9974 228.148 23.0705 228.082 23.132 228.027C23.3188 227.861 23.5576 227.666 23.8848 227.743C24.2316 227.838 24.3506 228.168 24.4294 228.386C24.5703 228.776 24.6137 229.044 24.6424 229.222C24.6528 229.286 24.6648 229.36 24.6738 229.383C24.7498 229.574 25.7027 229.624 26.0613 229.644C26.8672 229.688 27.5647 229.726 27.7324 230.276C27.8527 230.67 27.6019 231.099 26.9654 231.586C26.7671 231.738 26.5689 231.843 26.3962 231.921C26.5025 232.021 26.5871 232.157 26.5923 232.343C26.6039 232.782 26.1523 233.119 25.25 233.346C25.0258 233.403 24.7242 233.479 24.3295 233.46C24.1437 233.45 23.9809 233.422 23.842 233.395C23.8213 233.474 23.7834 233.556 23.715 233.634C23.5142 233.863 23.1898 233.922 22.7496 233.793C22.2636 233.657 21.8796 233.474 21.5407 233.312C21.2448 233.172 20.9896 233.051 20.7754 233.019C20.3772 232.963 20.0058 233.208 19.5613 233.535L18.4476 234.368Z" fill="#3352FF"/>
<path d="M21.6261 224.351L19.8721 224.613L19.7352 224.528C19.1023 224.135 18.4915 223.945 17.919 223.963C17.828 223.966 17.7371 223.974 17.6446 223.982C17.2778 224.012 16.8219 224.05 16.2807 223.832C15.9789 223.71 15.2778 223.361 15.342 222.796C15.3576 222.644 15.4231 222.527 15.5015 222.437C15.4807 222.425 15.4598 222.412 15.4371 222.399C15.1627 222.234 15.0428 222.099 14.9272 221.97C14.8384 221.87 14.7469 221.768 14.5332 221.609C14.4395 221.539 14.3574 221.486 14.2884 221.44C14.0798 221.302 13.8303 221.121 13.8221 220.786C13.8259 220.427 14.1157 220.229 14.3076 220.097C14.6497 219.863 14.8986 219.753 15.0637 219.68C15.124 219.653 15.1919 219.623 15.2126 219.609C15.3784 219.487 15.1846 218.555 15.1137 218.204C14.9515 217.415 14.8112 216.733 15.3025 216.431C15.6539 216.215 16.134 216.348 16.768 216.839C16.9653 216.992 17.117 217.157 17.2366 217.303C17.3068 217.175 17.4175 217.059 17.5961 217.007C18.0191 216.885 18.4604 217.235 18.9096 218.048C19.0219 218.249 19.1716 218.521 19.2532 218.907C19.2915 219.088 19.3052 219.253 19.3147 219.393C19.3965 219.393 19.4856 219.409 19.5785 219.455C19.8518 219.591 19.9906 219.889 19.9769 220.347C19.9692 220.85 19.8884 221.267 19.8178 221.635C19.7565 221.956 19.7046 222.233 19.727 222.448C19.7742 222.846 20.1062 223.142 20.5355 223.488L21.6261 224.351Z" fill="#3352FF"/>
<path d="M21.8625 219.097L22.0535 217.339L22.1707 217.228C22.7126 216.717 23.0516 216.176 23.1788 215.619C23.199 215.531 23.2147 215.441 23.2308 215.35C23.2942 214.988 23.3729 214.539 23.7215 214.072C23.9165 213.812 24.4326 213.224 24.9648 213.429C25.1084 213.483 25.2053 213.576 25.2727 213.674C25.2896 213.657 25.3069 213.64 25.3255 213.622C25.5553 213.399 25.7162 213.317 25.8711 213.239C25.9901 213.178 26.113 213.116 26.321 212.95C26.4123 212.877 26.4854 212.812 26.5469 212.757C26.7337 212.59 26.9725 212.396 27.2997 212.473C27.6466 212.567 27.7655 212.897 27.8444 213.116C27.9853 213.505 28.0287 213.773 28.0574 213.951C28.0677 214.016 28.0797 214.089 28.0888 214.113C28.1647 214.304 29.1176 214.353 29.4762 214.374C30.2822 214.417 30.9796 214.455 31.1473 215.005C31.2677 215.399 31.0168 215.829 30.3803 216.316C30.1821 216.468 29.9838 216.572 29.8112 216.65C29.9174 216.75 30.002 216.887 30.0072 217.072C30.0188 217.511 29.5672 217.848 28.6649 218.076C28.4407 218.133 28.1391 218.208 27.7444 218.189C27.5586 218.18 27.3958 218.152 27.257 218.125C27.2363 218.204 27.1983 218.286 27.1299 218.364C26.9291 218.593 26.6047 218.651 26.1645 218.522C25.6785 218.387 25.2945 218.203 24.9557 218.042C24.6597 217.901 24.4045 217.781 24.1904 217.748C23.7921 217.693 23.4207 217.938 22.9763 218.264L21.8625 219.097Z" fill="#3352FF"/>
<path d="M16.1748 252.794L15.8647 252.488L15.4337 252.443C15.4357 252.402 15.4329 252.308 15.4297 252.16C15.4132 251.351 15.3617 248.889 15.7054 245.106C15.9455 242.465 16.3466 239.784 16.8976 237.137C17.4496 234.485 18.0224 232.512 18.4826 230.927C18.8298 229.731 19.1803 228.596 19.5224 227.491C20.4355 224.539 21.2976 221.75 21.8314 218.57C21.951 217.86 22.1991 216.381 21.6911 214.637C21.3964 213.625 20.8917 212.673 20.1906 211.807L20.8692 211.261C21.6428 212.217 22.2008 213.272 22.5282 214.395C23.0914 216.33 22.8211 217.94 22.6912 218.714C22.1478 221.951 21.2771 224.766 20.3551 227.747C20.0147 228.848 19.6653 229.977 19.3196 231.168C18.8637 232.739 18.296 234.695 17.7512 237.313C17.2064 239.928 16.8104 242.576 16.573 245.184C16.2338 248.919 16.2848 251.345 16.3014 252.142C16.3101 252.567 16.3119 252.656 16.1748 252.794Z" fill="#3352FF"/>
<path d="M18.3292 212.808C18.2943 212.8 18.2592 212.792 18.2241 212.781C17.5084 212.581 16.9344 211.999 16.5174 211.053C16.3223 210.607 16.2762 210.139 16.1843 209.204C16.1699 209.06 16.1062 208.331 16.1845 207.365C16.2355 206.734 16.3035 206.48 16.4758 206.281C16.6671 206.059 16.9248 205.932 17.1972 205.868C17.2046 205.785 17.232 205.703 17.2864 205.626C17.5104 205.304 17.8855 205.436 18.089 205.505C18.1915 205.542 18.3193 205.588 18.463 205.612C18.6888 205.651 18.8237 205.612 19.0278 205.553C19.2232 205.496 19.466 205.426 19.8017 205.432C20.4641 205.441 20.9545 205.738 21.1162 205.836C21.9678 206.346 22.2618 207.16 22.6021 208.103C22.6697 208.292 22.8941 208.975 22.9463 209.855C22.984 210.489 22.9007 210.749 22.8051 210.935C22.6098 211.316 22.3108 211.493 21.5687 211.866C20.7935 212.256 20.4045 212.451 20.0856 212.552C19.3435 212.784 18.8775 212.93 18.3292 212.808Z" fill="#3352FF"/>
<path d="M280.386 252.979C280.386 253.312 280.654 253.578 280.987 253.578H361.399C361.732 253.578 362 253.312 362 252.979C362 252.647 361.732 252.38 361.399 252.38H280.987C280.654 252.38 280.386 252.647 280.386 252.979Z" fill="#222222"/>
<path d="M-22 252.979C-22 253.312 -21.7324 253.578 -21.3992 253.578H59.0132C59.3464 253.578 59.614 253.312 59.614 252.979C59.614 252.647 59.3464 252.38 59.0132 252.38H-21.3992C-21.7324 252.38 -22 252.647 -22 252.979Z" fill="#222222"/>
<path d="M243.069 253.257H98.1866V72.2514C98.1866 53.775 105.175 36.1935 117.864 22.745C131.704 8.07778 150.442 0 170.628 0C210.572 0 243.069 32.4119 243.069 72.2514V253.257ZM99.1963 252.25H242.06V72.2514C242.06 32.967 210.016 1.00699 170.628 1.00699C150.724 1.00699 132.246 8.97217 118.599 23.4353C106.087 36.696 99.1963 54.0327 99.1963 72.2514V252.25Z" fill="#222222"/>
<path d="M170.628 75.8523C170.497 75.8523 170.368 75.8012 170.271 75.7048L117.875 23.4461C117.678 23.2495 117.678 22.9309 117.875 22.7342C118.072 22.5375 118.392 22.5375 118.589 22.7342L170.123 74.1333V0.503494C170.123 0.225439 170.349 0 170.628 0C170.907 0 171.133 0.225439 171.133 0.503494V75.3488C171.133 75.5524 171.01 75.736 170.821 75.8139C170.759 75.8398 170.693 75.8523 170.628 75.8523Z" fill="#222222"/>
<path d="M223.163 23.2601L170.28 74.9947L170.987 75.7136L223.87 23.979L223.163 23.2601Z" fill="#222222"/>
<path d="M242.565 75.0206H98.6915V76.0276H242.565V75.0206Z" fill="#222222"/>
<path d="M275.937 279C274.746 279 273.572 278.594 272.601 277.806L242.246 253.144L242.883 252.363L273.238 277.025C274.531 278.075 276.27 278.286 277.777 277.578C279.284 276.869 280.227 275.396 280.238 273.735L281.632 55.3047C281.643 53.715 280.817 52.3058 279.424 51.5346C278.033 50.7644 276.398 50.8108 275.053 51.6598C255.659 63.8911 243.674 71.6857 242.992 72.5103C242.994 72.5083 243.033 72.4603 243.055 72.3736L242.075 72.1292C242.165 71.7712 242.332 71.105 274.513 50.8086C276.176 49.7604 278.194 49.7028 279.914 50.6542C281.635 51.6067 282.655 53.3475 282.642 55.3111L281.247 273.741C281.234 275.794 280.069 277.613 278.207 278.489C277.478 278.831 276.704 279 275.937 279Z" fill="#222222"/>
<path d="M242.712 206.708L242.417 207.672L280.945 219.373L281.24 218.41L242.712 206.708Z" fill="#222222"/>
<path d="M242.591 162.629L242.538 163.635L281.066 165.649L281.119 164.643L242.591 162.629Z" fill="#222222"/>
<path d="M281.673 108.509L242.443 118.212L242.686 119.19L281.916 109.487L281.673 108.509Z" fill="#222222"/>
<path d="M64.8145 279C64.0474 279 63.2739 278.831 62.5443 278.489C60.6823 277.613 59.5173 275.794 59.5043 273.741L58.1094 55.3111C58.0968 53.3475 59.1168 51.6066 60.8378 50.6542C62.5568 49.7023 64.5761 49.7606 66.2385 50.8086C98.4196 71.105 98.5868 71.7712 98.6765 72.1292L97.6969 72.3735C97.7186 72.4603 97.7578 72.5083 97.7595 72.5102C97.0777 71.6857 85.0925 63.8911 65.6986 51.6597C64.3533 50.8113 62.7195 50.7646 61.3276 51.5346C59.9344 52.3058 59.1089 53.715 59.119 55.3047L60.5139 273.735C60.5245 275.396 61.4673 276.869 62.9747 277.578C64.4825 278.287 66.2212 278.074 67.5131 277.025L97.868 252.363L98.5054 253.144L68.1505 277.806C67.1801 278.594 66.005 279 64.8145 279Z" fill="#222222"/>
<path d="M98.0392 206.707L59.5121 218.411L59.8064 219.375L98.3335 207.67L98.0392 206.707Z" fill="#222222"/>
<path d="M98.1604 162.631L59.6323 164.641L59.6851 165.647L98.2132 163.637L98.1604 162.631Z" fill="#222222"/>
<path d="M59.0786 108.509L58.8356 109.486L98.0652 119.19L98.3083 118.213L59.0786 108.509Z" fill="#222222"/>
<path d="M66.888 181.761C69.9548 181.761 72.441 179.282 72.441 176.223C72.441 173.164 69.9548 170.684 66.888 170.684C63.8211 170.684 61.335 173.164 61.335 176.223C61.335 179.282 63.8211 181.761 66.888 181.761Z" fill="#222222"/>
<path d="M123.548 182.066H139.38V161.908H123.548V182.066Z" fill="#FFB6B6"/>
<path d="M138.369 125.625C139.171 124.122 139.547 123.468 139.38 122.601C139.086 121.079 137.381 120.251 136.685 119.914C134.45 118.829 131.553 118.894 129.274 120.25C127.905 121.064 127.174 122.097 126.58 122.937C126.047 123.69 124.39 126.032 124.559 128.984C124.685 131.201 125.702 131.339 125.569 132.68C125.236 136.047 118.749 135.999 117.148 139.735C115.704 143.104 118.598 148.702 122.874 150.822C129.385 154.049 136.433 147.893 137.695 146.79C140.736 144.134 142.747 140.479 142.074 139.735C141.68 139.3 140.643 140.169 139.043 139.735C137.218 139.24 136.25 137.482 136.011 137.047C134.63 134.538 135.44 131.793 135.674 131C135.892 130.263 136.718 128.717 138.369 125.625Z" fill="#2F2E41"/>
<path d="M146.847 250.627L151.464 250.626L153.66 232.867L146.847 232.867L146.847 250.627Z" fill="#FFB6B6"/>
<path d="M162.664 250.522C162.807 250.764 162.883 251.543 162.883 251.824C162.883 252.687 162.182 253.386 161.316 253.386H147.02C146.43 253.386 145.951 252.909 145.951 252.32V251.727C145.951 251.727 145.244 249.943 146.7 247.743C146.7 247.743 148.51 249.465 151.214 246.768L152.011 245.328L157.783 249.538L160.983 249.931C161.683 250.017 162.304 249.917 162.664 250.522Z" fill="#2F2E41"/>
<path d="M120.237 250.627L124.853 250.626L127.049 232.867L120.236 232.867L120.237 250.627Z" fill="#FFB6B6"/>
<path d="M136.053 250.522C136.197 250.764 136.273 251.543 136.273 251.824C136.273 252.687 135.571 253.386 134.706 253.386H120.41C119.819 253.386 119.341 252.909 119.341 252.32V251.727C119.341 251.727 118.633 249.943 120.089 247.743C120.089 247.743 121.899 249.465 124.603 246.768L125.401 245.328L131.173 249.538L134.372 249.931C135.072 250.017 135.693 249.917 136.053 250.522Z" fill="#2F2E41"/>
<path d="M135.001 133.016L134.664 143.431L122.537 145.11L128.769 130.971L135.001 133.016Z" fill="#FFB6B6"/>
<path d="M131.632 136.376C135.539 136.376 138.706 133.217 138.706 129.32C138.706 125.424 135.539 122.265 131.632 122.265C127.725 122.265 124.558 125.424 124.558 129.32C124.558 133.217 127.725 136.376 131.632 136.376Z" fill="#FFB6B6"/>
<path d="M123.548 174.003C123.548 174.003 115.969 182.234 120.685 189.625L120.011 213.478C120.011 213.478 117.205 230.757 120.461 242.107L126.074 241.699L130.116 212.134L134.158 192.649L143.59 211.798C143.59 211.798 142.916 225.573 146.285 240.355H153.695L153.022 206.087L139.243 170.983L123.548 174.003Z" fill="#2F2E41"/>
<path d="M134.664 139.399L134.156 139.215L127.253 136.711C127.253 136.711 118.495 143.431 118.495 147.126C118.495 150.822 123.211 164.26 123.211 164.26C123.211 164.26 116.811 170.979 122.537 171.315C128.264 171.651 129.376 165.212 138.807 169.244L141.401 161.572C141.401 161.572 145.443 152.837 143.422 150.822L134.664 139.399Z" fill="#222222"/>
<path d="M144.844 134.58C145.262 132.623 146.614 131.253 147.862 131.519C149.11 131.785 149.782 133.586 149.363 135.543C149.207 136.327 148.864 137.062 148.364 137.687L146.486 145.953L143.211 145.204L144.878 136.944C144.678 136.17 144.666 135.359 144.844 134.58Z" fill="#FFB6B6"/>
<path d="M122.759 143.158L137.864 152.651L143.328 137.538L148.987 139.023L144.04 156.651C143.332 159.174 140.573 160.514 138.145 159.514L117.409 150.969L122.759 143.158Z" fill="#222222"/>
<path d="M145.823 143.395L139.229 136.263C139.122 136.147 139.069 135.991 139.082 135.834C139.096 135.677 139.175 135.532 139.301 135.436L145.438 130.751C145.562 130.656 145.721 130.617 145.875 130.643C146.029 130.67 146.166 130.759 146.251 130.89L151.586 139.029C151.748 139.276 151.69 139.607 151.455 139.785L146.577 143.462C146.527 143.499 146.473 143.527 146.418 143.546C146.212 143.616 145.978 143.563 145.823 143.395Z" fill="#3352FF"/>
<path d="M138.641 135.571C138.716 135.492 138.816 135.387 138.938 135.263C138.846 135.228 138.765 135.163 138.711 135.071L138.339 134.432C138.242 134.266 138.263 134.057 138.39 133.914C139.15 133.058 141.835 130.198 144.425 129.434C144.588 129.386 144.763 129.437 144.877 129.562L145.402 130.133C145.467 130.203 145.504 130.289 145.516 130.376C145.706 130.284 145.899 130.195 146.093 130.111C146.215 130.058 146.357 130.084 146.454 130.173L146.7 130.398C146.856 130.54 146.843 130.789 146.675 130.916L139.292 136.464C139.124 136.591 138.883 136.535 138.787 136.348L138.587 135.955C138.522 135.828 138.544 135.675 138.641 135.571Z" fill="#3F3D56"/>
<path d="M193.419 219.096C191.021 220.538 190.785 221.219 189.332 221.814C188.597 222.115 187.221 222.529 184.565 222.153C180.905 221.636 178.649 220.162 172.305 216.719C167.781 214.263 165.569 213.189 162.43 212.643C160.077 212.234 158.71 212.383 157.662 212.643C154.006 213.551 152.01 216.363 151.533 217.059C149.88 219.461 149.671 221.808 149.489 223.851C149.26 226.425 148.929 230.145 150.851 233.022C153.261 236.627 156.617 235.029 162.43 238.456C168.855 242.244 167.78 245.979 172.987 247.966C179.649 250.509 186.901 246.49 187.289 246.268C194.187 242.323 195.598 235.163 199.208 235.739C201.365 236.083 201.58 238.754 204.997 239.475C205.637 239.61 208.268 240.166 210.105 238.456C211.234 237.406 211.199 239.757 210.616 238.286C209.868 236.398 208.358 232.712 207.381 230.644C206.859 229.54 207.447 229.199 207.041 226.229C206.842 224.778 206.741 224.046 206.359 223.172C205.413 221.007 203.575 219.889 202.273 219.096C200.689 218.133 199.131 217.185 197.165 217.398C196.039 217.52 195.166 218.046 193.419 219.096Z" fill="#8B5742"/>
<path d="M151.873 227.248C151.269 227.742 151.125 228.742 150.851 230.644C150.598 232.404 150.752 233.484 150.851 235.399C151 238.275 150.766 238.007 150.851 241.853C150.922 245.017 150.957 246.599 151.192 247.966C151.614 250.425 151.838 249.48 153.916 255.778C154.338 257.056 154.674 258.141 155.619 258.495C156.803 258.94 158.168 257.947 158.343 257.816C158.63 257.602 159.642 256.845 159.705 255.778C159.786 254.424 158.249 254.08 156.981 252.042C156.19 250.769 155.999 249.495 155.619 246.947C155.257 244.524 155.076 243.313 155.619 242.192C156.609 240.148 158.875 239.514 159.024 239.475C160.38 239.118 160.819 239.624 162.43 239.475C163.937 239.336 166.42 238.629 166.857 237.437C168.055 234.172 154.759 224.89 151.873 227.248Z" fill="#8B5742"/>
<path d="M157.322 222.493C156.718 222.986 156.574 223.987 156.3 225.889C156.047 227.649 156.201 228.729 156.3 230.644C156.449 233.519 156.214 233.252 156.3 237.098C156.371 240.262 156.406 241.844 156.641 243.211C157.062 245.67 157.287 244.725 159.365 251.023C159.786 252.301 160.122 253.386 161.068 253.74C162.252 254.185 163.617 253.192 163.792 253.061C164.079 252.846 165.091 252.09 165.154 251.023C165.235 249.669 163.697 249.325 162.43 247.287C161.638 246.014 161.448 244.74 161.068 242.192C160.706 239.769 160.525 238.558 161.068 237.437C162.058 235.393 164.324 234.759 164.473 234.72C165.829 234.363 166.267 234.869 167.878 234.72C169.386 234.581 171.868 233.874 172.305 232.682C173.504 229.417 160.207 220.135 157.322 222.493Z" fill="#8B5742"/>
<path d="M167.538 239.136C167.155 239.719 166.715 241.223 165.835 244.23C165.443 245.571 162.903 254.396 162.089 257.137C161.855 257.925 161.552 258.908 160.727 259.854C160.033 260.65 159.662 260.625 159.365 261.213C158.593 262.741 160.1 264.897 160.387 265.288C160.72 265.744 162.269 267.861 164.473 267.666C164.703 267.645 166.193 267.513 166.516 266.647C167.013 265.319 164.095 264.072 164.133 261.892C164.155 260.604 165.189 260.071 166.516 258.495C169.363 255.116 168.149 253.36 170.262 250.684C173.423 246.68 179.298 246.607 180.138 246.608C182.313 246.611 185.34 246.615 187.289 248.646C190.006 251.476 188.883 256.428 190.014 263.93C190.014 263.93 190.197 265.146 190.695 266.987C191.516 270.024 192.172 270.808 192.397 271.062C192.704 271.408 193.601 272.39 195.122 272.761C195.331 272.812 196.3 273.033 197.505 272.761C198.306 272.58 199.035 272.415 199.549 271.742C200.041 271.096 200.228 270.122 199.889 269.364C199.479 268.447 198.635 268.596 197.505 267.666C196.708 267.009 196.293 266.096 195.462 264.269C195.094 263.461 194.543 262.235 194.1 260.533C193.587 258.564 193.524 257.043 193.419 254.08C193.331 251.584 193.373 249.509 193.419 247.287C193.472 244.7 193.545 243.855 193.419 242.192C193.287 240.448 193.158 238.75 192.738 237.777C190.476 232.542 172.53 231.542 167.538 239.136Z" fill="#8B5742"/>
<path d="M153.235 216.04C151.78 215.237 151.572 213.358 151.192 209.926C150.915 207.426 150.751 205.937 151.533 204.152C152.588 201.742 154.569 200.618 154.938 200.416C155.341 200.195 157.986 198.796 160.727 199.737C161.11 199.868 162.122 200.618 164.133 202.114C166.531 203.899 166.883 204.239 167.197 204.831C168.038 206.415 167.949 208.555 167.197 208.907C166.627 209.174 165.64 208.425 165.154 207.888C164.573 207.247 164.66 206.858 164.133 206.19C163.714 205.66 163.32 205.476 162.089 204.831C159.04 203.235 158.886 203.024 158.343 203.133C156.992 203.406 156.348 205.044 156.3 205.171C155.888 206.263 156.171 207.256 156.641 208.907C156.889 209.781 157.172 210.455 157.662 211.624C158.55 213.742 158.784 213.9 158.684 214.341C158.356 215.788 155.158 217.1 153.235 216.04Z" fill="#8B5742"/>
<path d="M188.141 221.983C187.578 222.076 187.304 225.287 188.141 228.097C188.712 230.019 189.866 231.964 190.072 232.307C190.234 232.578 190.39 232.824 190.865 233.531C193.188 236.99 194.361 238.718 194.951 238.626C195.738 238.503 193.584 236.647 193.419 234.872C193.112 231.571 191.626 231.163 188.992 226.38C187.567 223.792 188.58 221.911 188.141 221.983Z" fill="#3352FF"/>
<path d="M200.059 220.964C200.344 219.519 198.725 217.512 196.995 217.228C194.471 216.814 192.28 220.158 191.546 222.323C190.537 225.3 191.67 227.858 192.227 229.116C192.926 230.693 193.448 230.797 193.589 230.814C194.619 230.943 195.841 229.061 196.313 227.418C196.729 225.972 196.26 225.774 196.654 224.701C197.465 222.49 199.756 222.507 200.059 220.964Z" fill="#8B5742"/>
<path d="M193.62 230.566L193.62 230.566C193.619 230.566 193.619 230.566 193.618 230.566C193.592 230.563 193.478 230.549 193.29 230.369C193.087 230.175 192.798 229.787 192.456 229.015C191.899 227.758 190.807 225.281 191.783 222.403L191.547 222.323L191.783 222.403C192.14 221.349 192.855 220.003 193.784 218.977C194.72 217.943 195.819 217.289 196.954 217.475C197.744 217.605 198.531 218.135 199.089 218.819C199.651 219.508 199.936 220.297 199.814 220.916C199.751 221.236 199.586 221.48 199.343 221.704C199.12 221.911 198.845 222.09 198.529 222.295C198.49 222.32 198.45 222.346 198.41 222.372C197.692 222.841 196.855 223.428 196.419 224.614L196.419 224.614C196.209 225.187 196.225 225.543 196.241 225.909C196.242 225.916 196.242 225.923 196.242 225.931C196.258 226.28 196.271 226.661 196.073 227.349L196.313 227.418L196.073 227.349C195.844 228.144 195.434 228.997 194.96 229.631C194.723 229.947 194.478 230.199 194.241 230.363C194.003 230.527 193.795 230.588 193.62 230.566Z" stroke="#583D32" stroke-opacity="0.59" stroke-width="0.5"/>
<path d="M188.642 228.21L121.068 184.226L122.064 184L189.638 227.984L188.642 228.21Z" fill="#3352FF"/>
<path d="M124.19 183.677C124.431 185.812 123.523 187.667 122.16 187.82C120.798 187.973 119.498 186.367 119.257 184.231C119.148 183.379 119.246 182.514 119.542 181.708L118.633 172.649L122.225 172.3L123.347 181.28C123.816 182.001 124.105 182.823 124.19 183.677Z" fill="#FFB6B6"/>
<path d="M122.447 140.713L116.4 146.224L115.943 164.69L118.761 178.573L122.954 178.113L121.442 162.1L123.968 144.411L122.447 140.713Z" fill="#222222"/>
<path d="M135.001 125.289C135.803 123.786 136.178 123.132 136.011 122.265C135.718 120.743 134.012 119.915 133.316 119.578C131.082 118.493 128.185 118.558 125.906 119.914C124.537 120.728 123.806 121.761 123.211 122.601C122.678 123.354 121.022 125.696 121.19 128.648C121.316 130.865 122.333 131.003 122.201 132.344C121.868 135.711 115.381 135.663 113.78 139.399C112.336 142.769 115.229 148.366 119.506 150.486C126.017 153.713 133.065 147.557 134.327 146.454C137.368 143.798 139.379 140.143 138.706 139.399C138.312 138.964 137.275 139.833 135.674 139.399C133.85 138.904 132.882 137.146 132.643 136.711C131.262 134.203 132.072 131.457 132.306 130.664C132.523 129.927 133.349 128.381 135.001 125.289Z" fill="#2F2E41"/>
<path d="M170.628 75.8523C170.573 75.8523 170.517 75.8432 170.464 75.8247L102.061 52.3358C101.797 52.2454 101.657 51.9589 101.748 51.6959C101.839 51.4331 102.125 51.2932 102.39 51.3839L170.623 74.8148L239.022 50.0131C239.284 49.9187 239.574 50.0531 239.669 50.3142C239.764 50.5756 239.629 50.8644 239.367 50.9596L170.801 75.822C170.745 75.8422 170.687 75.8523 170.628 75.8523Z" fill="#222222"/>
</g>
<defs>
<clipPath id="clip0_143_521">
<rect width="384" height="279" fill="white" transform="translate(-22)"/>
</clipPath>
</defs>
</svg>
